<mxfile host="app.diagrams.net" modified="2023-07-18T06:29:37.756Z" agent="Mozilla/5.0 (Macintosh; Intel Mac OS X 10_15_7) AppleWebKit/537.36 (KHTML, like Gecko) Chrome/114.0.0.0 Safari/537.36" version="21.2.1" etag="waNvFIGWgNUVNDQC3vVk" type="github">
  <diagram name="第 1 页" id="5ZGE4_O1-6hPzP57OhJd">
    <mxGraphModel>
      <root>
        <mxCell id="0" />
        <mxCell id="1" parent="0" />
      </root>
    </mxGraphModel>
  </diagram>
</mxfile>
